<svg width="549" height="482" xmlns="http://www.w3.org/2000/svg"><path fill="none" d="M-1-1h551v484H-1z"/><path d="M165.757 23.303h.165c30.226 0 59.073 9.303 83.321 26.5l-10.592 1.119c-5.65.63-9.74 5.706-9.125 11.368.565 5.27 5.035 9.174 10.224 9.174.368 0 .74-.012 1.108-.044l34.642-3.75c.15-.017.287-.081.433-.09a9.838 9.838 0 0 0 1.079-.246c.283-.073.582-.158.856-.25a9.93 9.93 0 0 0 1.003-.425c.283-.137.561-.295.836-.457.287-.17.562-.363.845-.578.275-.21.554-.44.812-.678.113-.114.259-.194.38-.312.113-.105.182-.254.3-.38.12-.12.258-.238.375-.383.113-.142.194-.3.303-.465.198-.263.384-.546.546-.829.157-.287.315-.578.448-.873a7.98 7.98 0 0 0 .392-.97c.101-.307.194-.59.263-.9.085-.348.142-.712.206-1.04.024-.323.057-.626.073-.941.016-.344 0-.707-.016-1.063-.008-.158.016-.323 0-.48l-3.75-34.635c-.615-5.65-5.667-9.76-11.353-9.13-5.646.602-9.727 5.694-9.125 11.332l1.01 9.315c-27.752-19.778-60.843-30.48-95.502-30.48h-.214C74.72 2.813.767 76.961.848 167.984c.065 46.856 14.541 92.463 43.013 135.56 1.984 3.003 5.258 4.616 8.604 4.616 1.944 0 3.924-.55 5.662-1.698 4.748-3.128 6.058-9.525 2.926-14.262-26.237-39.702-39.553-81.482-39.606-124.236-.06-79.675 64.658-144.576 144.31-144.66zm287.087 312.96c-67.168 71.512-158.414 113.228-177.966 121.654-18.429-7.84-97.41-43.578-162.71-105.67l10.734-.121c5.682-.057 10.245-4.72 10.184-10.403-.073-5.642-4.655-10.192-10.285-10.192h-.125l-34.861.404a10.232 10.232 0 0 0-7.242 3.104 10.193 10.193 0 0 0-2.93 7.319l.412 34.86a10.287 10.287 0 0 0 10.293 10.16h.125c5.683-.048 10.225-4.724 10.169-10.41l-.093-9.279c75.602 71.585 168.295 109.263 172.558 110.972 1.302.505 2.231.89 3.492.89 2.962 0 7.65-2.07 22.765-9.19 10.504-4.94 27.065-13.176 46.318-24.253 34.065-19.617 83.228-52.138 124.163-95.732 3.909-4.147 3.694-10.653-.448-14.565-4.167-3.892-10.661-3.686-14.553.452zm72.846-54.364l-8.895 2.348c20.877-37.585 31.438-76.81 31.385-116.954C548.07 76.358 474.025 2.45 383.118 2.45h-.194c-23.319.016-45.83 4.817-66.99 14.262-5.189 2.32-7.525 8.41-5.189 13.599 2.308 5.201 8.41 7.517 13.591 5.201 18.481-8.268 38.191-12.476 58.612-12.476h.158c79.57 0 144.382 64.69 144.48 144.274.06 36.8-9.76 72.902-29.16 107.613l-2.78-10.443c-1.463-5.472-7.092-8.75-12.6-7.274-5.49 1.443-8.759 7.097-7.304 12.597l8.972 33.665a10.322 10.322 0 0 0 4.801 6.26 10.32 10.32 0 0 0 5.153 1.37c.885 0 1.774-.101 2.651-.332l33.66-8.98c5.497-1.455 8.77-7.1 7.296-12.593-1.472-5.496-7.121-8.757-12.585-7.294z" stroke="null"/></svg>