<svg width="454" height="458" xmlns="http://www.w3.org/2000/svg"><path fill="none" d="M-1-1h456v460H-1z"/><g stroke="null"><path d="M24.153 442.848a8.83 8.83 0 0 1-6.248-2.581c-3.327-3.324-3.471-8.693-.296-12.175L378.92 29.266c14.047-14.095 36.463-14.114 50.292-.325h0c6.68 6.695 10.354 15.583 10.354 25.011 0 9.45-3.674 18.324-10.354 25L30.09 440.555a8.81 8.81 0 0 1-5.938 2.293zM404.212 36.286c-4.716 0-9.158 1.839-12.507 5.17l-240.71 265.72 266.03-241.023c3.021-3.036 4.86-7.474 4.86-12.205 0-4.715-1.839-9.158-5.184-12.496h0a17.577 17.577 0 0 0-12.49-5.166z"/><path d="M377.698 89.31a8.832 8.832 0 0 1-6.26-2.585c-3.448-3.441-3.448-9.047 0-12.485l17.674-17.68c3.457-3.446 9.047-3.446 12.508 0 3.434 3.433 3.434 9.043 0 12.492l-17.678 17.673a8.789 8.789 0 0 1-6.244 2.585zM209.766 221.877a8.698 8.698 0 0 1-5.24-1.729c-2.692-1.975-65.47-49.047-65.47-113.168 0-56.167 35.448-88.379 97.228-88.379 40.513 0 84.084 3.331 128.013 27.633 4.261 2.338 5.816 7.714 3.449 12.005-2.36 4.273-7.744 5.794-12.027 3.457-40.421-22.327-81.308-25.4-119.458-25.4-36.28 0-79.549 12.268-79.549 70.699 0 55.31 57.7 98.523 58.28 98.962 3.94 2.895 4.778 8.434 1.864 12.36-1.702 2.315-4.38 3.56-7.09 3.56z"/><path d="M377.676 230.725c-4.42 0-8.231-3.324-8.767-7.81-.546-4.842 2.917-9.233 7.759-9.786 30.018-3.505 45.221-24.347 45.221-61.947 0-20.443-14.79-46.473-41.62-73.279-3.443-3.464-3.443-9.058 0-12.496 3.448-3.464 9.054-3.464 12.506 0 30.617 30.587 46.788 60.251 46.788 85.775 0 46.703-21.618 74.93-60.842 79.498-.355.026-.69.045-1.045.045zm-159.07 212.123c-4.885 0-8.844-3.951-8.844-8.837a8.838 8.838 0 0 1 8.844-8.844c97.722 0 132.567-41.093 132.567-79.546 0-28.202-48.054-58.456-83.154-80.558-10.52-6.62-20.25-12.758-28.046-18.323-3.981-2.825-4.878-8.353-2.057-12.33 2.847-3.966 8.36-4.87 12.341-2.05 7.548 5.403 16.987 11.34 27.179 17.752 40.735 25.66 91.407 57.559 91.407 95.51.007 44.855-39.35 97.226-150.237 97.226z"/></g></svg>