<svg width="642" height="470" xmlns="http://www.w3.org/2000/svg"><path fill="none" d="M-1-1h644v472H-1z"/><g stroke="null"><path d="M617.497 27.435v415.13H24.503V27.435h592.994m0-22.363H24.503C12.147 5.072 2.14 15.083 2.14 27.435v415.13c0 12.356 10.012 22.363 22.363 22.363h592.994c12.356 0 22.363-10.011 22.363-22.363V27.435c0-12.352-10.012-22.363-22.363-22.363h0z"/><path d="M321.005 424.72c-2.138 0-4.275-.611-6.142-1.834L53.113 250.852a11.187 11.187 0 0 1-5.042-9.157 11.17 11.17 0 0 1 4.726-9.317l261.75-185.053a11.18 11.18 0 0 1 12.594-.216l261.75 172.053a11.187 11.187 0 0 1 5.043 9.157 11.17 11.17 0 0 1-4.726 9.317L327.458 422.67a11.169 11.169 0 0 1-6.453 2.05zM79.104 241.167l241.67 158.837 242.131-171.161-241.67-158.856-242.131 171.18z"/><path d="M321.005 346.253c-61.344 0-111.247-49.911-111.247-111.264 0-61.34 49.903-111.242 111.247-111.242 61.339 0 111.242 49.902 111.242 111.242 0 61.348-49.903 111.264-111.242 111.264zm0-200.143c-49.011 0-88.884 39.872-88.884 88.879 0 49.02 39.873 88.901 88.884 88.901 49.006 0 88.878-39.881 88.878-88.901 0-49.007-39.872-88.88-88.878-88.88z"/><path d="M419.748 260.216c-3.08 0-6.146-1.26-8.352-3.742-64.769-72.694-182.46-32.913-183.642-32.5-5.828 2.023-12.204-1.052-14.231-6.895-2.027-5.833 1.057-12.204 6.895-14.231 1.342-.469 33.423-11.455 74.794-12.471 55.91-1.439 101.81 16.341 132.884 51.222 4.11 4.61 3.7 11.68-.91 15.79a11.167 11.167 0 0 1-7.438 2.827z"/></g></svg>