<svg width="306" height="474" xmlns="http://www.w3.org/2000/svg"><path fill="none" d="M-1-1h308v476H-1z"/><path d="M258.198 28.237l-55.483 125.36a18.831 18.831 0 0 0 1.436 17.89 18.836 18.836 0 0 0 15.78 8.556h55.982L32.746 432.757l70.442-168.116a18.81 18.81 0 0 0-1.69-17.704 18.826 18.826 0 0 0-15.677-8.397H47.152l87.84-210.303h123.206M131.8 9.392c-.263 0-.526.004-.785.016a15.192 15.192 0 0 0-12.658 9.81L27.475 236.802c-2.964 7.836.98 16.604 8.819 19.564 1.734.662 3.564.995 5.414.995H85.82L7.434 444.435c-2.766 7.91 1.428 16.566 9.342 19.325a15.161 15.161 0 0 0 15.954-3.839L295.652 186.68c5.68-6.176 5.286-15.776-.886-21.457a15.202 15.202 0 0 0-10.181-4.005h-64.658l58.157-131.405c2.879-7.874-1.177-16.593-9.04-19.472a15.503 15.503 0 0 0-5.197-.928H132.582c-.252-.016-.519-.02-.782-.02h0z" stroke="null"/></svg>