<svg width="549" height="482" xmlns="http://www.w3.org/2000/svg">

 <g>
  <title>background</title>
  <rect fill="none" id="canvas_background" height="484" width="551" y="-1" x="-1"/>
 </g>
 <g>
  <title>Layer 1</title>
  <g stroke="null" id="svg_12">
   <path stroke="null" id="svg_13" d="m165.756669,23.303178c0.056579,0 0.101034,0 0.165696,0c30.225452,0 59.072795,9.303248 83.321052,26.499304l-10.592447,1.119461c-5.649844,0.630455 -9.739717,5.706423 -9.125427,11.368391c0.565793,5.269955 5.035555,9.173924 10.224682,9.173924c0.367765,0 0.739572,-0.012124 1.107337,-0.044455l34.642677,-3.750397c0.149531,-0.016166 0.286938,-0.080828 0.432427,-0.08891c0.347558,-0.064662 0.723406,-0.137407 1.079047,-0.246524c0.282896,-0.072745 0.581958,-0.157614 0.856772,-0.250565c0.347558,-0.125283 0.670868,-0.262689 1.002261,-0.424344c0.282896,-0.137407 0.561751,-0.29502 0.836565,-0.456676c0.286938,-0.169738 0.561751,-0.363724 0.844648,-0.577917c0.274814,-0.210152 0.553669,-0.44051 0.812317,-0.678951c0.113159,-0.113159 0.258648,-0.193986 0.379889,-0.311186c0.113159,-0.105076 0.181862,-0.254607 0.299062,-0.379889c0.121241,-0.121241 0.258648,-0.238441 0.375848,-0.383931c0.113159,-0.141448 0.193986,-0.299062 0.303103,-0.464758c0.198027,-0.262689 0.383931,-0.545586 0.545586,-0.828482c0.157614,-0.286938 0.315227,-0.577917 0.448593,-0.872937c0.149531,-0.311186 0.286938,-0.64662 0.392013,-0.96993c0.101034,-0.307145 0.193986,-0.590041 0.262689,-0.901227c0.084869,-0.347558 0.141448,-0.711282 0.20611,-1.038634c0.024248,-0.32331 0.056579,-0.626413 0.072745,-0.941641c0.016166,-0.343517 0,-0.707241 -0.016166,-1.062882c-0.008083,-0.157614 0.016166,-0.32331 0,-0.480924l-3.750397,-34.634594c-0.614289,-5.649844 -5.666009,-9.759923 -11.352226,-9.129469c-5.645803,0.602165 -9.727592,5.694299 -9.125427,11.332019l1.010344,9.315372c-27.75213,-19.778495 -60.842918,-30.480059 -95.50176,-30.480059c-0.064662,0 -0.129324,0 -0.214193,0c-90.97946,0.101034 -164.932603,74.248163 -164.851775,165.272078c0.064662,46.855715 14.540871,92.462645 43.012367,135.559881c1.984316,3.002742 5.25783,4.615252 8.60409,4.615252c1.943902,0 3.924176,-0.549627 5.661968,-1.697378c4.748617,-3.128025 6.058023,-9.525524 2.925956,-14.262016c-26.236614,-39.702479 -39.552949,-81.482226 -39.605486,-124.235945c-0.060621,-79.675731 64.657977,-144.576191 144.30946,-144.66106z"/>
   <path stroke="null" id="svg_14" d="m452.843907,336.263307c-67.167672,71.512151 -158.413863,113.227236 -177.966041,121.653505c-18.428675,-7.84027 -97.40929,-43.578159 -162.709846,-105.669863l10.733895,-0.121241c5.682175,-0.056579 10.244889,-4.720327 10.184268,-10.402502c-0.072745,-5.641761 -4.655665,-10.192351 -10.285302,-10.192351c-0.056579,0 -0.080828,0 -0.125283,0l-34.860911,0.404138c-2.736012,0.02829 -5.338658,1.143709 -7.242146,3.103777c-1.919654,1.956026 -2.974453,4.578879 -2.929998,7.318932l0.41222,34.860911c0.072745,5.641761 4.659707,10.16002 10.293385,10.16002c0.048497,0 0.084869,0 0.125283,0c5.682175,-0.048497 10.224682,-4.724369 10.168102,-10.410585l-0.092952,-9.279c75.602024,71.584896 168.295028,109.262646 172.55868,110.972148c1.301323,0.505172 2.23084,0.889103 3.491749,0.889103c2.962329,0 7.650325,-2.069185 22.765072,-9.190089c10.503537,-4.938562 27.065096,-13.174886 46.318212,-24.252298c34.06476,-19.61684 83.228101,-52.137794 124.1632,-95.732119c3.908011,-4.146452 3.693818,-10.653068 -0.448593,-14.56512c-4.166659,-3.891845 -10.66115,-3.685735 -14.552996,0.452634z"/>
   <path stroke="null" id="svg_15" d="m525.689713,281.898714l-8.895069,2.34804c20.877749,-37.584798 31.437865,-76.810395 31.385327,-116.953385c-0.109117,-90.935005 -74.155211,-164.843693 -165.061927,-164.843693c-0.072745,0 -0.129324,0 -0.193986,0c-23.31874,0.016166 -45.829206,4.81732 -66.989851,14.262016c-5.189127,2.31975 -7.525042,8.410104 -5.189127,13.599231c2.307626,5.201251 8.410104,7.51696 13.591148,5.201251c18.481213,-8.268656 38.191005,-12.475728 58.612079,-12.475728c0.048497,0 0.096993,0 0.157614,0c79.570655,0 144.382205,64.690308 144.479198,144.273088c0.060621,36.800771 -9.759923,72.902385 -29.158529,107.613765l-2.780467,-10.442916c-1.462978,-5.472023 -7.092615,-8.749579 -12.601011,-7.274477c-5.488189,1.442771 -8.757662,7.096657 -7.302767,12.59697l8.971855,33.664663c0.707241,2.630936 2.424826,4.886024 4.801155,6.260092c1.572095,0.905268 3.350301,1.370027 5.152755,1.370027c0.885061,0 1.774164,-0.101034 2.651143,-0.331393l33.660622,-8.979938c5.496272,-1.454895 8.769786,-7.100698 7.294684,-12.592928c-1.471061,-5.496272 -7.120905,-8.757662 -12.584845,-7.294684z"/>
  </g>
 </g>
</svg>