<svg width="454" height="458" xmlns="http://www.w3.org/2000/svg">

 <g>
  <title>background</title>
  <rect fill="none" id="canvas_background" height="460" width="456" y="-1" x="-1"/>
 </g>
 <g>
  <title>Layer 1</title>
  <g stroke="null" id="svg_1">
   <g stroke="null" id="svg_2">
    <path stroke="null" id="svg_3" d="m24.152941,442.847787c-2.25997,0 -4.527325,-0.864106 -6.248152,-2.58124c-3.327178,-3.323485 -3.471195,-8.69276 -0.295421,-12.175033l361.310828,-398.825589c14.047263,-14.095269 36.462324,-14.113733 50.291714,-0.324963l0,0l0,0l0,0c6.680205,6.694976 10.354502,15.583452 10.354502,25.011071c0,9.449776 -3.674297,18.323481 -10.354502,24.999993l-399.12101,361.602557c-1.702363,1.536189 -3.810929,2.293205 -5.93796,2.293205zm380.058977,-406.561923c-4.715656,0 -9.158048,1.838995 -12.507382,5.169866l-240.708942,265.720013l266.030205,-241.022827c3.020679,-3.03545 4.859674,-7.474149 4.859674,-12.204576c0,-4.715656 -1.838995,-9.158048 -5.184637,-12.496304l0,0c-3.338256,-3.327178 -7.769569,-5.166173 -12.488918,-5.166173z"/>
   </g>
   <g stroke="null" id="svg_4">
    <path stroke="null" id="svg_5" d="m377.697893,89.310221c-2.25997,0 -4.527325,-0.856721 -6.25923,-2.584933c-3.449039,-3.441653 -3.449039,-9.047265 0,-12.485225l17.673555,-17.68094c3.456424,-3.445346 9.047265,-3.445346 12.507382,0c3.434268,3.434268 3.434268,9.043572 0,12.492611l-17.677248,17.673555c-1.717134,1.724519 -3.984489,2.584933 -6.244459,2.584933z"/>
   </g>
   <g stroke="null" id="svg_6">
    <path stroke="null" id="svg_7" d="m209.765887,221.876653c-1.83161,0 -3.670605,-0.553914 -5.240028,-1.728212c-2.692023,-1.975627 -65.468962,-49.047253 -65.468962,-113.168358c0,-56.166897 35.446814,-88.378852 97.226708,-88.378852c40.513282,0 84.084171,3.330871 128.013258,27.632932c4.261446,2.337518 5.816099,7.714178 3.449039,12.005166c-2.359674,4.272525 -7.74372,5.793942 -12.027323,3.456424c-40.420963,-22.326434 -81.307215,-25.398811 -119.45713,-25.398811c-36.281378,0 -79.549461,12.267353 -79.549461,70.697912c0,55.310176 57.699393,98.522867 58.279156,98.962306c3.940176,2.895125 4.778433,8.434266 1.864844,12.359672c-1.702363,2.315361 -4.379615,3.559822 -7.090101,3.559822z"/>
   </g>
   <g stroke="null" id="svg_8">
    <path stroke="null" id="svg_9" d="m377.675736,230.724509c-4.420235,0 -8.231165,-3.323485 -8.766615,-7.81019c-0.546529,-4.84121 2.917281,-9.231903 7.758491,-9.785817c30.018455,-3.50443 45.221553,-24.346374 45.221553,-61.946068c0,-20.443126 -14.789508,-46.473399 -41.621111,-73.279152c-3.441653,-3.46381 -3.441653,-9.058343 0,-12.496304c3.449039,-3.46381 9.05465,-3.46381 12.507382,0c30.616683,30.587141 46.787284,60.251091 46.787284,85.775456c0,46.70235 -21.617424,74.929816 -60.841933,79.497762c-0.354505,0.025849 -0.690546,0.044313 -1.045051,0.044313z"/>
   </g>
   <g stroke="null" id="svg_10">
    <path stroke="null" id="svg_11" d="m218.606357,442.847787c-4.885523,0 -8.844163,-3.951254 -8.844163,-8.836777c0,-4.889216 3.954947,-8.844163 8.844163,-8.844163c97.721538,0 132.566432,-41.093046 132.566432,-79.545768c0,-28.201617 -48.053901,-58.456409 -83.153595,-80.557584c-10.520676,-6.621121 -20.251102,-12.75849 -28.046521,-18.323481c-3.980797,-2.824962 -4.878137,-8.353026 -2.056868,-12.330129c2.847119,-3.966025 8.360411,-4.870752 12.341208,-2.049482c7.548004,5.40251 16.986701,11.340469 27.178722,17.751103c40.734848,25.660997 91.406917,57.559068 91.406917,95.509574c0.007386,44.85597 -39.350063,97.226708 -150.236294,97.226708z"/>
   </g>
  </g>
 </g>
</svg>