<svg width="642" height="470" xmlns="http://www.w3.org/2000/svg">

 <g>
  <title>background</title>
  <rect fill="none" id="canvas_background" height="472" width="644" y="-1" x="-1"/>
 </g>
 <g>
  <title>Layer 1</title>
  <g stroke="null" id="svg_16">
   <path stroke="null" id="svg_17" d="m617.496573,27.434934l0,415.130125l-592.993127,0l0,-415.130125l592.993127,0m0,-22.363309l-592.993127,0c-12.35613,0 -22.363309,10.011775 -22.363309,22.363309l0,415.130125c0,12.35613 10.011775,22.363309 22.363309,22.363309l592.993127,0c12.35613,0 22.363309,-10.011775 22.363309,-22.363309l0,-415.130125c0,-12.351534 -10.011775,-22.363309 -22.363309,-22.363309l0,0z"/>
   <path stroke="null" id="svg_18" d="m321.004606,424.720379c-2.1375,0 -4.275,-0.611371 -6.141291,-1.834113l-261.749544,-172.034292c-3.093629,-2.031774 -4.978307,-5.460968 -5.042662,-9.156775c-0.064355,-3.695807 1.705403,-7.184759 4.725484,-9.317662l261.749544,-185.052358c3.746371,-2.656936 8.756856,-2.739678 12.595163,-0.216048l261.749544,172.052679c3.093629,2.031774 4.978307,5.460968 5.042662,9.156775c0.064355,3.695807 -1.705403,7.184759 -4.725484,9.317662l-261.749544,185.033971c-1.930645,1.365242 -4.192259,2.050162 -6.453872,2.050162zm-241.900671,-183.55381l241.670832,158.836952l242.130509,-171.160905l-241.670832,-158.855339l-242.130509,171.179292z"/>
   <g stroke="null" id="svg_19">
    <path stroke="null" id="svg_20" d="m321.004606,346.253435c-61.343958,0 -111.246544,-49.911779 -111.246544,-111.264931c0,-61.339361 49.902586,-111.241947 111.246544,-111.241947c61.339361,0 111.241947,49.902586 111.241947,111.241947c0,61.348555 -49.902586,111.264931 -111.241947,111.264931zm0,-200.14357c-49.010812,0 -88.883235,39.872424 -88.883235,88.878638c0,49.020005 39.872424,88.901622 88.883235,88.901622c49.006215,0 88.878638,-39.881617 88.878638,-88.901622c0,-49.006215 -39.872424,-88.878638 -88.878638,-88.878638z"/>
    <path stroke="null" id="svg_21" d="m419.747923,260.215603c-3.079839,0 -6.145888,-1.259516 -8.35234,-3.741775c-64.768555,-72.693395 -182.459777,-32.912907 -183.641148,-32.499197c-5.82871,2.022581 -12.204437,-1.052661 -14.231614,-6.895162c-2.027178,-5.833307 1.057258,-12.204437 6.895162,-14.231614c1.342258,-0.468871 33.423149,-11.455163 74.794121,-12.47105c55.91057,-1.43879 101.809366,16.341534 132.883562,51.22186c4.109517,4.610565 3.700404,11.680404 -0.910161,15.789921c-2.132903,1.893871 -4.789839,2.827016 -7.437581,2.827016z"/>
   </g>
  </g>
 </g>
</svg>