<svg width="306" height="474" xmlns="http://www.w3.org/2000/svg">

 <g>
  <title>background</title>
  <rect fill="none" id="canvas_background" height="476" width="308" y="-1" x="-1"/>
 </g>
 <g>
  <title>Layer 1</title>
  <g stroke="null" id="svg_22">
   <path stroke="null" id="svg_23" d="m258.197741,28.237494l-55.482711,125.360433c-2.577172,5.823788 -2.035424,12.55307 1.435632,17.889285c3.474925,5.336216 9.414802,8.555745 15.780339,8.555745l55.981892,0l-243.167355,252.713725l70.442688,-168.115941c2.437865,-5.81218 1.803246,-12.456329 -1.691027,-17.703543c-3.486534,-5.243344 -9.372236,-8.39709 -15.675859,-8.39709l-38.669182,0l87.840531,-210.302614l123.205051,0m-126.397493,-18.845083c-0.263135,0 -0.526269,0.00387 -0.785534,0.015479c-5.742526,0.607531 -10.649213,4.399766 -12.65755,9.809504l-90.882058,217.585251c-2.964134,7.835994 0.979016,16.604569 8.81888,19.564834c1.733593,0.661706 3.563926,0.994494 5.413608,0.994494l44.113747,0l-78.387032,187.073243c-2.766783,7.909517 1.427892,16.565873 9.341279,19.324917c1.632983,0.568835 3.32014,0.847448 4.991819,0.847448c4.074717,0 8.056563,-1.644591 10.962653,-4.686118l262.9218,-273.242095c5.680612,-6.175925 5.28591,-15.776469 -0.886145,-21.457081c-2.782262,-2.557823 -6.404233,-3.974107 -10.180988,-4.005064l-64.657596,0l58.156623,-131.404791c2.879002,-7.874691 -1.176367,-16.59296 -9.039448,-19.471963c-1.671679,-0.607531 -3.428489,-0.917102 -5.196909,-0.92871l-131.265484,0c-0.251526,-0.015479 -0.51853,-0.019348 -0.781665,-0.019348l0,0z"/>
  </g>
 </g>
</svg>